name Walk10.mot
datacolumns 19
datarows 30
range 2.62100000 2.65000000
endheader

                time	   L_ground_force_vx	   L_ground_force_vy	   L_ground_force_vz	   L_ground_force_px	   L_ground_force_py	   L_ground_force_pz	   R_ground_force_vx	   R_ground_force_vy	   R_ground_force_vz	   R_ground_force_px	   R_ground_force_py	   R_ground_force_pz	   L_ground_torque_x	   L_ground_torque_y	   L_ground_torque_z	   R_ground_torque_x	   R_ground_torque_y	   R_ground_torque_z	
          2.62100000	         22.66023313	        685.29260855	         43.58285314	         -0.33193040	          0.00000000	         -0.08867822	          0.00000000	          0.00000000	          0.00000000	          0.00000000	          0.00000000	          0.00000000	          0.00000000	          1.06960247	          0.00000000	          0.00000000	          0.00000000	          0.00000000	
          2.62200000	         23.01052004	        686.00892421	         43.67953818	         -0.33157824	          0.00000000	         -0.08875848	          0.00000000	          0.00000000	          0.00000000	          0.00000000	          0.00000000	          0.00000000	          0.00000000	          1.06913415	          0.00000000	          0.00000000	          0.00000000	          0.00000000	
          2.62300000	         23.39541386	        686.79218556	         43.77043502	         -0.33123354	          0.00000000	         -0.08880404	          0.00000000	          0.00000000	          0.00000000	          0.00000000	          0.00000000	          0.00000000	          0.00000000	          1.07296750	          0.00000000	          0.00000000	          0.00000000	          0.00000000	
          2.62400000	         23.80327339	        687.64883267	         43.86693667	         -0.33090039	          0.00000000	         -0.08882294	          0.00000000	          0.00000000	          0.00000000	          0.00000000	          0.00000000	          0.00000000	          0.00000000	          1.07904567	          0.00000000	          0.00000000	          0.00000000	          0.00000000	
          2.62500000	         24.21100608	        688.57087689	         43.97204214	         -0.33058084	          0.00000000	         -0.08883797	          0.00000000	          0.00000000	          0.00000000	          0.00000000	          0.00000000	          0.00000000	          0.00000000	          1.08775015	          0.00000000	          0.00000000	          0.00000000	          0.00000000	
          2.62600000	         24.59849623	        689.52670216	         44.08370467	         -0.33027085	          0.00000000	         -0.08886524	          0.00000000	          0.00000000	          0.00000000	          0.00000000	          0.00000000	          0.00000000	          0.00000000	          1.09781857	          0.00000000	          0.00000000	          0.00000000	          0.00000000	
          2.62700000	         24.95916620	        690.45984632	         44.20114375	         -0.32996640	          0.00000000	         -0.08890319	          0.00000000	          0.00000000	          0.00000000	          0.00000000	          0.00000000	          0.00000000	          0.00000000	          1.10355683	          0.00000000	          0.00000000	          0.00000000	          0.00000000	
          2.62800000	         25.29795316	        691.32671676	         44.32450676	         -0.32966992	          0.00000000	         -0.08893634	          0.00000000	          0.00000000	          0.00000000	          0.00000000	          0.00000000	          0.00000000	          0.00000000	          1.09972664	          0.00000000	          0.00000000	          0.00000000	          0.00000000	
          2.62900000	         25.62166674	        692.12235617	         44.44984190	         -0.32938546	          0.00000000	         -0.08895337	          0.00000000	          0.00000000	          0.00000000	          0.00000000	          0.00000000	          0.00000000	          0.00000000	          1.08738794	          0.00000000	          0.00000000	          0.00000000	          0.00000000	
          2.63000000	         25.93666787	        692.86743098	         44.56921872	         -0.32910740	          0.00000000	         -0.08895736	          0.00000000	          0.00000000	          0.00000000	          0.00000000	          0.00000000	          0.00000000	          0.00000000	          1.07285304	          0.00000000	          0.00000000	          0.00000000	          0.00000000	
          2.63100000	         26.25423247	        693.59070758	         44.67623371	         -0.32881652	          0.00000000	         -0.08895415	          0.00000000	          0.00000000	          0.00000000	          0.00000000	          0.00000000	          0.00000000	          0.00000000	          1.06241412	          0.00000000	          0.00000000	          0.00000000	          0.00000000	
          2.63200000	         26.58931129	        694.30927388	         44.76794703	         -0.32849620	          0.00000000	         -0.08894442	          0.00000000	          0.00000000	          0.00000000	          0.00000000	          0.00000000	          0.00000000	          0.00000000	          1.05970382	          0.00000000	          0.00000000	          0.00000000	          0.00000000	
          2.63300000	         26.95307331	        695.01799192	         44.84600291	         -0.32815157	          0.00000000	         -0.08892824	          0.00000000	          0.00000000	          0.00000000	          0.00000000	          0.00000000	          0.00000000	          0.00000000	          1.06521990	          0.00000000	          0.00000000	          0.00000000	          0.00000000	
          2.63400000	         27.34949418	        695.69655635	         44.91959611	         -0.32780106	          0.00000000	         -0.08891177	          0.00000000	          0.00000000	          0.00000000	          0.00000000	          0.00000000	          0.00000000	          0.00000000	          1.07697368	          0.00000000	          0.00000000	          0.00000000	          0.00000000	
          2.63500000	         27.76888031	        696.31265669	         45.00031380	         -0.32745316	          0.00000000	         -0.08891359	          0.00000000	          0.00000000	          0.00000000	          0.00000000	          0.00000000	          0.00000000	          0.00000000	          1.09281274	          0.00000000	          0.00000000	          0.00000000	          0.00000000	
          2.63600000	         28.18454539	        696.84197318	         45.09217128	         -0.32710226	          0.00000000	         -0.08895310	          0.00000000	          0.00000000	          0.00000000	          0.00000000	          0.00000000	          0.00000000	          0.00000000	          1.11031262	          0.00000000	          0.00000000	          0.00000000	          0.00000000	
          2.63700000	         28.57232295	        697.31068251	         45.19002920	         -0.32674321	          0.00000000	         -0.08903344	          0.00000000	          0.00000000	          0.00000000	          0.00000000	          0.00000000	          0.00000000	          0.00000000	          1.12424257	          0.00000000	          0.00000000	          0.00000000	          0.00000000	
          2.63800000	         28.93096615	        697.79652807	         45.28358122	         -0.32638236	          0.00000000	         -0.08914509	          0.00000000	          0.00000000	          0.00000000	          0.00000000	          0.00000000	          0.00000000	          0.00000000	          1.12713733	          0.00000000	          0.00000000	          0.00000000	          0.00000000	
          2.63900000	         29.27597703	        698.36457441	         45.36118742	         -0.32602994	          0.00000000	         -0.08927192	          0.00000000	          0.00000000	          0.00000000	          0.00000000	          0.00000000	          0.00000000	          0.00000000	          1.11549224	          0.00000000	          0.00000000	          0.00000000	          0.00000000	
          2.64000000	         29.62213634	        699.01151767	         45.41593038	         -0.32568567	          0.00000000	         -0.08939081	          0.00000000	          0.00000000	          0.00000000	          0.00000000	          0.00000000	          0.00000000	          0.00000000	          1.09639707	          0.00000000	          0.00000000	          0.00000000	          0.00000000	
          2.64100000	         29.97439496	        699.69041698	         45.44958176	         -0.32533897	          0.00000000	         -0.08948046	          0.00000000	          0.00000000	          0.00000000	          0.00000000	          0.00000000	          0.00000000	          0.00000000	          1.08465958	          0.00000000	          0.00000000	          0.00000000	          0.00000000	
          2.64200000	         30.32985675	        700.37590077	         45.46996765	         -0.32497845	          0.00000000	         -0.08953646	          0.00000000	          0.00000000	          0.00000000	          0.00000000	          0.00000000	          0.00000000	          0.00000000	          1.09113518	          0.00000000	          0.00000000	          0.00000000	          0.00000000	
          2.64300000	         30.68663125	        701.08436025	         45.48972576	         -0.32459846	          0.00000000	         -0.08957365	          0.00000000	          0.00000000	          0.00000000	          0.00000000	          0.00000000	          0.00000000	          0.00000000	          1.11475664	          0.00000000	          0.00000000	          0.00000000	          0.00000000	
          2.64400000	         31.04795235	        701.85182654	         45.52787487	         -0.32419967	          0.00000000	         -0.08961198	          0.00000000	          0.00000000	          0.00000000	          0.00000000	          0.00000000	          0.00000000	          0.00000000	          1.14546990	          0.00000000	          0.00000000	          0.00000000	          0.00000000	
          2.64500000	         31.41790672	        702.70606531	         45.60106497	         -0.32378734	          0.00000000	         -0.08966593	          0.00000000	          0.00000000	          0.00000000	          0.00000000	          0.00000000	          0.00000000	          0.00000000	          1.17307987	          0.00000000	          0.00000000	          0.00000000	          0.00000000	
          2.64600000	         31.79719195	        703.62725225	         45.71089577	         -0.32337407	          0.00000000	         -0.08974147	          0.00000000	          0.00000000	          0.00000000	          0.00000000	          0.00000000	          0.00000000	          0.00000000	          1.19227004	          0.00000000	          0.00000000	          0.00000000	          0.00000000	
          2.64700000	         32.18037126	        704.54111610	         45.84522000	         -0.32297593	          0.00000000	         -0.08982837	          0.00000000	          0.00000000	          0.00000000	          0.00000000	          0.00000000	          0.00000000	          0.00000000	          1.20099946	          0.00000000	          0.00000000	          0.00000000	          0.00000000	
          2.64800000	         32.55565017	        705.38350648	         45.98585827	         -0.32259912	          0.00000000	         -0.08990159	          0.00000000	          0.00000000	          0.00000000	          0.00000000	          0.00000000	          0.00000000	          0.00000000	          1.19855711	          0.00000000	          0.00000000	          0.00000000	          0.00000000	
          2.64900000	         32.91540748	        706.14095781	         46.11387178	         -0.32223473	          0.00000000	         -0.08994475	          0.00000000	          0.00000000	          0.00000000	          0.00000000	          0.00000000	          0.00000000	          0.00000000	          1.18678568	          0.00000000	          0.00000000	          0.00000000	          0.00000000	
          2.65000000	         33.26956492	        706.82531449	         46.21647932	         -0.32186786	          0.00000000	         -0.08996802	          0.00000000	          0.00000000	          0.00000000	          0.00000000	          0.00000000	          0.00000000	          0.00000000	          1.17002276	          0.00000000	          0.00000000	          0.00000000	          0.00000000	
